<svg viewBox="0 0 512 512" xmlns="http://www.w3.org/2000/svg" fill-rule="evenodd" clip-rule="evenodd" stroke-linejoin="round" stroke-miterlimit="2"><path d="M223.35 117.445c.033 65.866.333 131.765-.133 197.664 16.808 1.864 34.048 2.43 50.79-.6-.933-25.959-.034-51.952-.533-77.914 21.434-2.295 43.033-.565 64.534-1.198-.265-11.548-.233-23.064.033-34.613-21.433-.133-42.9.2-64.367-.2-.2-15.576-.167-31.186-.035-46.762 25.528.034 51.09-.066 76.617.1.067-12.214-.033-24.462-.066-36.71-42.27.298-84.572-.034-126.84.233M94.314 36.335h339.148c13.013.666 26.26 10.052 26.993 23.83.799 19.237-.033 38.542.265 57.812.2 92.458.034 184.917.101 277.343-106.138.1-212.276-.067-318.413.133-15.942.434-31.919 1.232-47.861-.133-.832-119.484-.367-238.969-.266-358.453l.033-.531z" fill="#ff6902" fill-rule="nonzero"/><path d="M16 84.196C41.794 67.954 68.087 52.48 94.281 36.868c-.101 119.484-.567 238.968.266 358.453-12.048 7.122-23.964 14.477-36.045 21.6C44.29 425.409 30.245 434.13 16 442.582V84.196z" fill="#ff9548" fill-rule="nonzero"/><path d="M223.35 117.446c42.268-.267 84.57.065 126.84-.233.033 12.248.133 24.496.066 36.71-25.528-.166-51.089-.066-76.617-.1-.132 15.576-.165 31.186.035 46.762 21.466.4 42.934.067 64.367.2-.266 11.55-.298 23.065-.033 34.613-21.5.633-43.1-1.097-64.534 1.198.5 25.962-.4 51.955.532 77.914-16.741 3.03-33.981 2.464-50.789.6.466-65.9.166-131.798.133-197.664" fill="#fffefe" fill-rule="nonzero"/><path d="M460.72 117.978c11.75-.1 23.532-.1 35.28-.133-.266 119.285-.033 238.535-.133 357.82H82.565c-10.75-1.665-21.267-8.82-23.43-20.002-2.064-12.814-.566-25.861-.633-38.741 12.082-7.123 23.997-14.48 36.045-21.601 15.943 1.365 31.918.566 47.86.134 106.137-.201 212.276-.034 318.414-.134-.067-92.426.1-184.884-.1-277.343" fill="#933b00" fill-rule="nonzero"/></svg>