<?xml version="1.0" encoding="utf-8"?>
<!-- Generator: Adobe Illustrator 22.0.1, SVG Export Plug-In . SVG Version: 6.00 Build 0)  -->
<svg version="1.1" id="Layer_3" xmlns="http://www.w3.org/2000/svg" xmlns:xlink="http://www.w3.org/1999/xlink" x="0px" y="0px"
	 viewBox="0 0 64 64" style="enable-background:new 0 0 64 64;" xml:space="preserve">
<style type="text/css">
	.st0{fill:#FAF5F5;}
	.st1{fill:#63312D;}
	.st2{fill:#F9A287;}
	.st3{fill:#FCB7A4;}
	.st4{fill:#DB785A;}
	.st5{fill:#E0E0E0;}
	.st6{fill:#84DBFF;}
	.st7{fill:#EFC36A;}
	.st8{fill:#F9DD9D;}
	.st9{fill:#EEC26A;}
	.st10{fill:#A9EBFF;}
	.st11{fill:#52BADB;}
	.st12{fill:#FFFFFF;}
	.st13{fill:#F0EEEE;}
	.st14{fill:#BDBDBD;}
	.st15{fill:#E3DFDF;}
	.st16{fill:#FFE8BB;}
	.st17{fill:#FFF2D2;}
	.st18{fill:#D8C18F;}
	.st19{fill:#EAD194;}
	.st20{fill:#BFA064;}
	.st21{fill:#CCCCCC;}
	.st22{fill:#C5F1FF;}
	.st23{fill:#D3A553;}
	.st24{fill:#67C7E5;}
</style>
<g>
	<path class="st1" d="M30.916,53.459C19.083,53.459,9.457,43.833,9.457,32s9.626-21.459,21.458-21.459
		c11.833,0,21.459,9.626,21.459,21.459S42.748,53.459,30.916,53.459z M30.916,11.541c-11.281,0-20.458,9.178-20.458,20.459
		s9.178,20.459,20.458,20.459c11.281,0,20.459-9.178,20.459-20.459S42.197,11.541,30.916,11.541z"/>
	<path class="st1" d="M30.943,58h-0.028c-0.668,0-1.345-0.025-2.009-0.076l0.076-0.998c0.64,0.05,1.29,0.074,1.933,0.074L30.943,58z
		 M32.983,57.92l-0.08-0.996c0.659-0.053,1.315-0.131,1.949-0.231l0.156,0.988C34.349,57.785,33.668,57.865,32.983,57.92z
		 M26.88,57.688c-0.674-0.105-1.348-0.238-2.002-0.395l0.232-0.973c0.629,0.15,1.276,0.278,1.924,0.379L26.88,57.688z
		 M37.009,57.282l-0.233-0.973c0.633-0.151,1.269-0.331,1.887-0.533l0.311,0.951C38.329,56.938,37.668,57.124,37.009,57.282z
		 M22.913,56.745c-0.646-0.208-1.291-0.445-1.917-0.704l0.382-0.924c0.602,0.248,1.222,0.477,1.843,0.677L22.913,56.745z
		 M40.886,56.021l-0.384-0.924c0.602-0.25,1.201-0.527,1.779-0.823l0.455,0.891C42.135,55.472,41.512,55.76,40.886,56.021z
		 M19.14,55.186c-0.604-0.308-1.204-0.644-1.781-0.996l0.521-0.854c0.556,0.34,1.132,0.662,1.714,0.959L19.14,55.186z
		 M44.514,54.165l-0.523-0.852c0.551-0.339,1.099-0.706,1.629-1.093l0.589,0.809C45.658,53.431,45.087,53.813,44.514,54.165z
		 M15.66,53.056c-0.549-0.398-1.088-0.823-1.604-1.262l0.648-0.762c0.496,0.422,1.015,0.831,1.543,1.215L15.66,53.056z
		 M47.81,51.764l-0.651-0.758c0.499-0.429,0.983-0.878,1.441-1.335l0.707,0.707C48.832,50.854,48.328,51.319,47.81,51.764z
		 M12.558,50.411c-0.482-0.481-0.949-0.985-1.388-1.497l0.76-0.65c0.421,0.492,0.87,0.977,1.334,1.438L12.558,50.411z M50.692,48.88
		l-0.761-0.648c0.423-0.497,0.833-1.016,1.216-1.542l0.809,0.588C51.557,47.825,51.132,48.364,50.692,48.88z M9.903,47.315
		c-0.399-0.548-0.782-1.117-1.138-1.693l0.852-0.525c0.342,0.555,0.709,1.103,1.094,1.629L9.903,47.315z M53.09,45.581l-0.853-0.523
		c0.341-0.555,0.664-1.131,0.961-1.712l0.891,0.455C53.781,44.405,53.444,45.004,53.09,45.581z M7.765,43.846
		c-0.307-0.599-0.596-1.222-0.858-1.85l0.923-0.385c0.252,0.604,0.53,1.202,0.825,1.779L7.765,43.846z M54.945,41.945l-0.924-0.383
		c0.25-0.603,0.478-1.222,0.679-1.842l0.951,0.309C55.442,40.674,55.205,41.318,54.945,41.945z M6.197,40.084
		c-0.21-0.64-0.397-1.301-0.557-1.963l0.972-0.234c0.154,0.636,0.334,1.271,0.536,1.887L6.197,40.084z M56.204,38.065l-0.973-0.232
		c0.152-0.636,0.28-1.283,0.38-1.924l0.988,0.154C56.495,36.73,56.362,37.404,56.204,38.065z M5.241,36.12
		c-0.106-0.666-0.187-1.347-0.242-2.024l0.997-0.08c0.052,0.652,0.13,1.308,0.232,1.948L5.241,36.12z M56.837,34.038L55.84,33.96
		c0.05-0.646,0.076-1.305,0.076-1.96l0-0.111h1l0,0.104C56.916,32.682,56.89,33.367,56.837,34.038z M4.916,32.057V32
		c0-0.662,0.025-1.329,0.074-1.981l0.997,0.076C5.939,30.722,5.916,31.362,5.916,32L4.916,32.057z M55.831,29.931
		c-0.054-0.652-0.133-1.308-0.236-1.948l0.987-0.158c0.107,0.666,0.19,1.347,0.246,2.024L55.831,29.931z M6.211,28.146l-0.988-0.152
		c0.104-0.669,0.235-1.343,0.392-2.003l0.973,0.23C6.437,26.855,6.311,27.503,6.211,28.146z M55.207,26.062
		c-0.155-0.636-0.336-1.271-0.54-1.887l0.95-0.313c0.211,0.642,0.399,1.301,0.561,1.961L55.207,26.062z M7.114,24.331l-0.952-0.307
		c0.208-0.645,0.444-1.29,0.703-1.918l0.925,0.381C7.541,23.091,7.313,23.711,7.114,24.331z M53.981,22.339
		c-0.252-0.601-0.531-1.198-0.829-1.776l0.889-0.459c0.311,0.602,0.601,1.224,0.862,1.849L53.981,22.339z M8.607,20.703L7.716,20.25
		c0.307-0.604,0.642-1.204,0.995-1.782l0.854,0.521C9.224,19.545,8.902,20.122,8.607,20.703z M52.186,18.856
		c-0.342-0.552-0.711-1.1-1.098-1.626l0.807-0.592c0.402,0.548,0.786,1.117,1.142,1.69L52.186,18.856z M10.652,17.354l-0.81-0.586
		c0.398-0.55,0.822-1.09,1.261-1.605l0.762,0.648C11.443,16.306,11.035,16.825,10.652,17.354z M49.867,15.695
		c-0.423-0.492-0.873-0.976-1.337-1.436l0.704-0.711c0.483,0.479,0.951,0.982,1.392,1.494L49.867,15.695z M13.194,14.366
		l-0.709-0.705c0.474-0.477,0.977-0.943,1.494-1.39l0.653,0.758C14.134,13.458,13.65,13.908,13.194,14.366z M47.085,12.932
		c-0.499-0.422-1.019-0.83-1.545-1.211l0.586-0.811c0.548,0.396,1.088,0.82,1.606,1.26L47.085,12.932z M16.168,11.812l-0.591-0.807
		c0.546-0.399,1.115-0.783,1.692-1.14l0.526,0.85C17.24,11.059,16.693,11.428,16.168,11.812z M43.904,10.635
		c-0.56-0.341-1.137-0.662-1.715-0.954l0.451-0.893c0.602,0.304,1.202,0.639,1.784,0.993L43.904,10.635z M19.502,9.751l-0.457-0.889
		c0.597-0.307,1.219-0.597,1.848-0.86l0.387,0.922C20.674,9.178,20.076,9.456,19.502,9.751z M40.404,8.863
		c-0.607-0.249-1.229-0.476-1.845-0.674l0.306-0.951c0.642,0.205,1.287,0.441,1.918,0.699L40.404,8.863z M23.116,8.24l-0.312-0.949
		c0.639-0.21,1.299-0.398,1.962-0.56l0.236,0.973C24.365,7.858,23.73,8.039,23.116,8.24z M36.669,7.665
		c-0.637-0.15-1.284-0.275-1.925-0.374l0.151-0.988c0.667,0.102,1.341,0.233,2.003,0.39L36.669,7.665z M26.925,7.317l-0.157-0.988
		c0.667-0.106,1.348-0.188,2.024-0.243l0.081,0.996C28.223,7.136,27.568,7.215,26.925,7.317z M32.795,7.069
		C32.177,7.023,31.545,7,30.916,7l-0.083-1h0.083c0.654,0,1.312,0.024,1.954,0.071L32.795,7.069z"/>
	<circle class="st6" cx="10.259" cy="32" r="7.176"/>
	<path class="st10" d="M5.128,32c0-3.615,2.676-6.597,6.154-7.095c-0.335-0.048-0.674-0.081-1.022-0.081
		c-3.963,0-7.176,3.213-7.176,7.176s3.213,7.176,7.176,7.176c0.348,0,0.687-0.033,1.022-0.081C7.804,38.597,5.128,35.615,5.128,32z"
		/>
	<path class="st1" d="M10.259,39.676c-4.232,0-7.676-3.443-7.676-7.676s3.443-7.676,7.676-7.676s7.676,3.443,7.676,7.676
		S14.492,39.676,10.259,39.676z M10.259,25.324c-3.681,0-6.676,2.995-6.676,6.676s2.995,6.676,6.676,6.676s6.676-2.995,6.676-6.676
		S13.94,25.324,10.259,25.324z"/>
	<path class="st11" d="M13.604,24.824h-3.345c3.963,0,7.176,3.213,7.176,7.176s-3.213,7.176-7.176,7.176h3.345
		c3.963,0,7.176-3.213,7.176-7.176S17.567,24.824,13.604,24.824z"/>
	<path class="st1" d="M13.604,39.676h-3.345c-0.276,0-0.5-0.224-0.5-0.5s0.224-0.5,0.5-0.5c3.681,0,6.676-2.995,6.676-6.676
		s-2.995-6.676-6.676-6.676c-0.276,0-0.5-0.224-0.5-0.5s0.224-0.5,0.5-0.5h3.345c4.232,0,7.676,3.443,7.676,7.676
		S17.836,39.676,13.604,39.676z M14.073,25.341c2.306,1.325,3.862,3.813,3.862,6.659s-1.556,5.334-3.862,6.659
		c3.463-0.241,6.207-3.136,6.207-6.659S17.536,25.582,14.073,25.341z"/>
	<circle class="st6" cx="50.396" cy="32" r="7.176"/>
	<path class="st10" d="M45.264,32c0-3.615,2.676-6.597,6.154-7.095c-0.335-0.048-0.674-0.081-1.022-0.081
		c-3.963,0-7.176,3.213-7.176,7.176s3.213,7.176,7.176,7.176c0.348,0,0.687-0.033,1.022-0.081
		C47.941,38.597,45.264,35.615,45.264,32z"/>
	<path class="st1" d="M50.396,39.676c-4.232,0-7.676-3.443-7.676-7.676s3.443-7.676,7.676-7.676s7.676,3.443,7.676,7.676
		S54.628,39.676,50.396,39.676z M50.396,25.324c-3.681,0-6.676,2.995-6.676,6.676s2.995,6.676,6.676,6.676s6.676-2.995,6.676-6.676
		S54.077,25.324,50.396,25.324z"/>
	<path class="st11" d="M53.741,24.824h-3.345c3.963,0,7.176,3.213,7.176,7.176s-3.213,7.176-7.176,7.176h3.345
		c3.963,0,7.176-3.213,7.176-7.176S57.704,24.824,53.741,24.824z"/>
	<path class="st1" d="M53.741,39.676h-3.345c-0.276,0-0.5-0.224-0.5-0.5s0.224-0.5,0.5-0.5c3.681,0,6.676-2.995,6.676-6.676
		s-2.995-6.676-6.676-6.676c-0.276,0-0.5-0.224-0.5-0.5s0.224-0.5,0.5-0.5h3.345c4.232,0,7.676,3.443,7.676,7.676
		S57.973,39.676,53.741,39.676z M54.21,25.341c2.306,1.325,3.862,3.813,3.862,6.659s-1.556,5.334-3.862,6.659
		c3.463-0.241,6.207-3.136,6.207-6.659S57.673,25.582,54.21,25.341z"/>
	<rect x="17.435" y="31.5" class="st1" width="25.785" height="1"/>
	<circle class="st2" cx="30.757" cy="32" r="2.979"/>
	<path class="st1" d="M30.757,35.479c-1.918,0-3.479-1.561-3.479-3.479s1.561-3.479,3.479-3.479s3.479,1.561,3.479,3.479
		S32.676,35.479,30.757,35.479z M30.757,29.521c-1.367,0-2.479,1.112-2.479,2.479s1.112,2.479,2.479,2.479
		c1.367,0,2.479-1.112,2.479-2.479S32.124,29.521,30.757,29.521z"/>
	<rect x="29.09" y="31.5" class="st1" width="3.333" height="1"/>
	<rect x="30.257" y="30.333" class="st1" width="1" height="3.334"/>
	<polygon class="st8" points="19.796,32 24.95,34.976 24.95,29.024 	"/>
	<path class="st1" d="M24.95,35.476c-0.086,0-0.173-0.022-0.25-0.067l-5.154-2.976c-0.155-0.089-0.25-0.254-0.25-0.433
		s0.095-0.344,0.25-0.433l5.154-2.976c0.154-0.09,0.346-0.09,0.5,0c0.155,0.089,0.25,0.254,0.25,0.433v5.951
		c0,0.179-0.095,0.344-0.25,0.433C25.123,35.453,25.037,35.476,24.95,35.476z M20.796,32l3.654,2.109v-4.219L20.796,32z"/>
	<polygon class="st8" points="27.923,52.834 33.077,55.809 33.077,49.858 	"/>
	<path class="st1" d="M33.077,56.31c-0.086,0-0.173-0.022-0.25-0.067l-5.154-2.976c-0.155-0.089-0.25-0.254-0.25-0.433
		s0.095-0.344,0.25-0.433l5.154-2.976c0.154-0.09,0.346-0.09,0.5,0c0.155,0.089,0.25,0.254,0.25,0.433v5.951
		c0,0.179-0.095,0.344-0.25,0.433C33.25,56.287,33.164,56.31,33.077,56.31z M28.923,52.834l3.654,2.109v-4.219L28.923,52.834z"/>
	<polygon class="st8" points="33.689,11.041 28.535,8.066 28.535,14.017 	"/>
	<path class="st1" d="M28.535,14.517c-0.086,0-0.173-0.022-0.25-0.067c-0.155-0.089-0.25-0.254-0.25-0.433V8.065
		c0-0.179,0.095-0.344,0.25-0.433c0.154-0.09,0.346-0.09,0.5,0l5.154,2.976c0.155,0.089,0.25,0.254,0.25,0.433
		s-0.095,0.344-0.25,0.433l-5.154,2.976C28.708,14.494,28.622,14.517,28.535,14.517z M29.035,8.932v4.219l3.654-2.109L29.035,8.932z
		"/>
	<polygon class="st8" points="35.981,32 41.135,34.976 41.135,29.024 	"/>
	<path class="st1" d="M41.135,35.476c-0.086,0-0.173-0.022-0.25-0.067l-5.154-2.976c-0.155-0.089-0.25-0.254-0.25-0.433
		s0.095-0.344,0.25-0.433l5.154-2.976c0.154-0.09,0.346-0.09,0.5,0c0.155,0.089,0.25,0.254,0.25,0.433v5.951
		c0,0.179-0.095,0.344-0.25,0.433C41.308,35.453,41.221,35.476,41.135,35.476z M36.98,32l3.654,2.109v-4.219L36.98,32z"/>
</g>
</svg>
